HIERARCHY
ROOT Hips
{
	OFFSET 0.00000 0.00000 0.00000
	CHANNELS 6 Xposition Yposition Zposition Zrotation Yrotation Xrotation 
	JOINT LHipJoint
	{
		OFFSET 0 0 0
		CHANNELS 3 Zrotation Yrotation Xrotation
		JOINT LeftUpLeg
		{
			OFFSET 1.37590 -1.78394 0.89329
			CHANNELS 3 Zrotation Yrotation Xrotation
			JOINT LeftLeg
			{
				OFFSET 2.47928 -6.81178 0.00000
				CHANNELS 3 Zrotation Yrotation Xrotation
				JOINT LeftFoot
				{
					OFFSET 2.63345 -7.23535 0.00000
					CHANNELS 3 Zrotation Yrotation Xrotation
					JOINT LeftToeBase
					{
						OFFSET 0.23938 -0.65768 2.27012
						CHANNELS 3 Zrotation Yrotation Xrotation
						End Site
						{
							OFFSET 0.00000 -0.00000 1.18363
						}
					}
				}
			}
		}
	}
	JOINT RHipJoint
	{
		OFFSET 0 0 0
		CHANNELS 3 Zrotation Yrotation Xrotation
		JOINT RightUpLeg
		{
			OFFSET -1.33617 -1.78394 0.89329
			CHANNELS 3 Zrotation Yrotation Xrotation
			JOINT RightLeg
			{
				OFFSET -2.56922 -7.05888 0.00000
				CHANNELS 3 Zrotation Yrotation Xrotation
				JOINT RightFoot
				{
					OFFSET -2.56568 -7.04915 0.00000
					CHANNELS 3 Zrotation Yrotation Xrotation
					JOINT RightToeBase
					{
						OFFSET -0.27533 -0.75646 2.18105
						CHANNELS 3 Zrotation Yrotation Xrotation
						End Site
						{
							OFFSET -0.00000 -0.00000 1.15233
						}
					}
				}
			}
		}
	}
	JOINT LowerBack
	{
		OFFSET 0 0 0
		CHANNELS 3 Zrotation Yrotation Xrotation
		JOINT Spine
		{
			OFFSET 0.06190 2.15152 -0.00935
			CHANNELS 3 Zrotation Yrotation Xrotation
			JOINT Spine1
			{
				OFFSET 0.06334 2.15332 0.00872
				CHANNELS 3 Zrotation Yrotation Xrotation
				JOINT Neck
				{
					OFFSET 0 0 0
					CHANNELS 3 Zrotation Yrotation Xrotation
					JOINT Neck1
					{
						OFFSET -0.04202 1.66908 0.23524
						CHANNELS 3 Zrotation Yrotation Xrotation
						JOINT Head
						{
							OFFSET 0.07510 1.69357 -0.24440
							CHANNELS 3 Zrotation Yrotation Xrotation
							End Site
							{
								OFFSET 0.02556 1.71719 -0.11000
							}
						}
					}
				}
				JOINT LeftShoulder
				{
					OFFSET 0 0 0
					CHANNELS 3 Zrotation Yrotation Xrotation
					JOINT LeftArm
					{
						OFFSET 3.67168 1.26306 -0.41342
						CHANNELS 3 Zrotation Yrotation Xrotation
						JOINT LeftForeArm
						{
							OFFSET 4.68510 -0.00000 -0.00000
							CHANNELS 3 Zrotation Yrotation Xrotation
							JOINT LeftHand
							{
								OFFSET 3.39626 -0.00000 -0.00000
								CHANNELS 3 Zrotation Yrotation Xrotation
								JOINT LeftFingerBase
								{
									OFFSET 0 0 0
									CHANNELS 3 Zrotation Yrotation Xrotation
									JOINT LeftHandIndex1
									{
										OFFSET 0.48608 -0.00000 -0.00000
										CHANNELS 3 Zrotation Yrotation Xrotation
										End Site
										{
											OFFSET 0.39189 -0.00000 -0.00000
										}
									}
								}
								JOINT LThumb
								{
									OFFSET 0 0 0
									CHANNELS 3 Zrotation Yrotation Xrotation
									End Site
									{
										OFFSET 0.39787 -0.00000 0.39787
									}
								}
							}
						}
					}
				}
				JOINT RightShoulder
				{
					OFFSET 0 0 0
					CHANNELS 3 Zrotation Yrotation Xrotation
					JOINT RightArm
					{
						OFFSET -3.04136 1.42992 -0.76390
						CHANNELS 3 Zrotation Yrotation Xrotation
						JOINT RightForeArm
						{
							OFFSET -5.55576 -0.00000 -0.00000
							CHANNELS 3 Zrotation Yrotation Xrotation
							JOINT RightHand
							{
								OFFSET -3.32774 -0.00000 -0.00000
								CHANNELS 3 Zrotation Yrotation Xrotation
								JOINT RightFingerBase
								{
									OFFSET 0 0 0
									CHANNELS 3 Zrotation Yrotation Xrotation
									JOINT RightHandIndex1
									{
										OFFSET -0.50763 -0.00000 -0.00000
										CHANNELS 3 Zrotation Yrotation Xrotation
										End Site
										{
											OFFSET -0.40926 -0.00000 -0.00000
										}
									}
								}
								JOINT RThumb
								{
									OFFSET 0 0 0
									CHANNELS 3 Zrotation Yrotation Xrotation
									End Site
									{
										OFFSET -0.41551 -0.00000 0.41551
									}
								}
							}
						}
					}
				}
			}
		}
	}
}
MOTION
Frames: 7
Frame Time: 0.0540541
0.00 0.00 0.00 0 0 0 0 0 0 -21 0 0 0 0 0 0 0 0 0 0 0 0 0 0 21 0 0 0 0 0 0 0 0 0 0 0 0 0 0 0 0 0 0 0 0 0 0 -16 0 0 21 0 0 11 0 0 0 -8 0 0 0 0 0 0 0 0 0 0 0 0 0 0 0 0 0 0 0 0 8 0 0 0 0 0 0 0 0 0 0 0 0 0 0 0 0 0
0.00 0.00 0.00 60.5522 -88.1425 -51.4840 0.0000 0.0000 0.0000 -23.9459 -3.8098 -0.8173 0.3514 3.8085 10.5386 0.5364 -8.1530 -13.4006 0.0102 0.6532 1.7949 0.0000 0.0000 0.0000 14.0707 8.7555 -38.0062 -1.0310 -6.4585 18.1207 0.5134 -13.4452 -10.0735 -0.0067 -0.5300 1.4564 -3.8072 -1.6193 -0.6906 -0.1388 -2.1115 0.9505 1.9451 -1.0976 1.4954 -6.2370 -0.1896 -13.1326 -3.6835 1.6021 29.5984 -0.1496 -0.7670 11.9083 0.0000 0.0000 0.0000 -89.1951 -13.3679 27.0125 17.5648 -27.5963 -4.3458 -0.0000 -0.0000 19.8211 23.4194 25.2095 10.4528 -7.1250 0.0000 -0.0000 -6.8904 57.0063 -2.0336 0.0000 0.0000 0.0000 92.0272 5.8602 18.3609 -19.8717 30.4874 -5.4661 0.0000 0.0000 2.2444 -15.9831 -19.7613 5.5313 7.1250 -0.0000 -0.0000 12.2960 -50.0675 -1.5566
0.00 0.00 0.00 -9.5976 -87.9074 18.8305 0.0000 0.0000 0.0000 -22.1244 -4.9541 2.7508 2.0365 8.9417 25.6130 0.2299 -7.5220 -9.3595 0.4524 -4.3151 -11.9648 0.0000 0.0000 0.0000 18.1731 8.6087 -36.4468 -1.7682 -8.3655 23.8299 0.6333 -14.1876 -2.3868 -1.1615 -6.8418 19.2476 1.0860 -2.6041 -0.0291 3.4109 -3.5624 1.0463 2.8495 -1.8111 1.2417 -5.0935 -0.9607 -14.1341 -1.2627 -0.2529 26.1728 0.3393 -0.9771 10.7802 0.0000 0.0000 0.0000 -83.4656 1.0000 1.3273 12.8109 -21.0095 -2.3851 -0.0000 -0.0000 26.9960 2.2767 14.6376 0.5756 -7.1250 0.0000 -0.0000 -22.8049 43.3779 0.9668 0.0000 0.0000 0.0000 77.9716 3.8733 1.9180 -18.6396 28.9684 -4.8550 0.0000 0.0000 1.1074 -3.7413 -20.2629 1.2973 7.1250 -0.0000 -0.0000 23.9172 -48.7219 -2.3178
0.00 0.00 0.00 -61.7885 -86.6439 70.7738 0.0000 0.0000 0.0000 -16.5820 -4.6658 -3.5625 4.3983 12.6723 38.1538 -0.1344 -6.8516 4.8586 0.9871 -6.3236 -17.7264 0.0000 0.0000 0.0000 23.1495 7.3786 -31.0184 -1.5689 -7.9035 22.4213 0.4217 -11.4200 -4.0323 -1.5900 -7.9542 22.5750 2.7452 -1.9445 -0.8017 4.7324 -2.7697 0.4856 3.2794 -1.4268 1.0562 -5.5585 -2.1519 -13.5697 1.9657 -2.7199 25.5997 1.2573 -1.7389 10.5509 -0.0000 0.0000 0.0000 -69.4402 5.4049 -2.0913 17.9742 -28.1241 -4.5370 -0.0000 -0.0000 14.5896 -1.7186 14.3441 -0.4259 -7.1250 0.0000 -0.0000 -26.0699 42.6863 1.6081 -0.0000 0.0000 0.0000 64.1674 2.7586 -2.5597 -24.5518 35.7424 -8.0266 0.0000 -0.0000 -4.6951 0.3749 -19.7840 -0.1269 7.1250 -0.0000 -0.0000 27.3561 -47.7141 -1.9725
0.00 0.00 0.00 -82.0578 -82.9682 89.5855 0.0000 0.0000 0.0000 -9.6827 -5.5490 -12.5876 8.6473 16.5753 54.8623 0.1987 -3.9086 10.7872 0.2429 -3.1717 -8.7572 0.0000 0.0000 0.0000 29.7768 4.8846 -23.1032 -1.1843 -6.9063 19.4380 0.2094 -8.6521 -6.4640 -1.4921 -7.7167 21.8568 5.1984 -1.0291 -0.2482 6.3959 -1.5704 -0.3469 3.6850 -0.8757 -0.1700 -5.9629 -3.4305 -13.3425 5.0457 -5.1621 24.0715 2.0996 -2.5159 10.1510 -0.0000 0.0000 0.0000 -42.0510 7.4075 -8.6973 22.2550 -33.2640 -6.7252 -0.0000 0.0000 -2.0895 8.1837 22.8444 3.1956 -7.1250 0.0000 -0.0000 -21.0973 51.7891 -3.6627 -0.0000 0.0000 0.0000 38.4253 2.4764 -12.2288 -28.6764 39.7315 -10.5532 0.0000 -0.0000 -13.3579 -3.8698 -24.2698 1.5926 7.1250 -0.0000 -0.0000 25.9576 -52.3671 -4.9809
0.00 0.00 0.00 -104.6480 -82.0635 109.9140 0.0000 0.0000 0.0000 -7.2752 -7.6625 -22.6686 10.2371 17.5411 60.2780 0.0433 -0.0759 -3.9037 0.3850 -3.9847 -11.0337 0.0000 0.0000 0.0000 31.9881 3.0649 -9.8948 -0.5808 -4.8801 13.5669 0.0029 -6.9230 -9.8053 -1.3443 -7.3405 20.7283 5.0778 0.1680 -0.0468 6.2501 0.0911 -0.8701 3.6031 -0.0526 -0.8674 -6.7131 -5.1031 -12.9405 9.5070 -8.3004 21.5086 3.3646 -3.5735 9.6086 0.0000 -0.0000 0.0000 -3.6383 3.0044 -30.8974 23.0188 -34.1093 -7.1488 -0.0000 0.0000 -25.1724 14.6832 27.6433 6.9316 -7.1250 0.0000 -0.0000 -17.4031 57.5541 -5.4599 0.0000 -0.0000 0.0000 3.2529 7.1808 -40.2007 -26.2971 37.5006 -9.0679 0.0000 -0.0000 -23.3805 -8.6265 -26.6748 3.8962 7.1250 -0.0000 -0.0000 22.8897 -55.4127 -6.0824
0.00 0.00 0.00 -115.6940 -80.9363 120.8670 0.0000 0.0000 0.0000 -5.2289 -8.7214 -28.2597 6.0831 14.5084 45.3142 0.2280 0.7413 -9.3188 0.5868 -4.9047 -13.6370 0.0000 0.0000 0.0000 32.8641 2.4631 -2.3024 -0.3560 -3.8335 10.6086 -0.1958 -6.0486 -12.7012 -1.0752 -6.5912 18.5097 6.5075 0.6872 0.4942 6.0043 0.9403 -2.1338 2.5434 0.3103 -2.4777 -7.4279 -5.9906 -13.2244 11.1674 -9.7242 20.7292 3.8551 -4.1309 9.6565 -0.0000 0.0000 0.0000 13.4285 0.1143 -41.4902 23.4279 -34.5534 -7.3796 -0.0000 0.0000 -28.7125 12.2725 25.8726 5.4226 -7.1250 0.0000 -0.0000 -18.7831 55.3744 -4.9097 -0.0000 0.0000 0.0000 -15.7838 10.6058 -57.0250 -23.5695 34.7057 -7.4600 0.0000 -0.0000 -24.0364 -7.7569 -24.2604 3.2035 7.1250 -0.0000 -0.0000 22.2726 -53.0301 -4.5810
